<?xml version="1.0" standalone="no"?>
<!DOCTYPE svg PUBLIC "-//W3C//DTD SVG 20010904//EN"
 "http://www.w3.org/TR/2001/REC-SVG-20010904/DTD/svg10.dtd">
<svg version="1.0" xmlns="http://www.w3.org/2000/svg"
 width="576.000000pt" height="552.000000pt" viewBox="0 0 576.000000 552.000000"
 preserveAspectRatio="xMidYMid meet">

<g transform="translate(0.000000,552.000000) scale(0.100000,-0.100000)"
fill="#000000" stroke="none">
<path d="M0 2792 c0 -2139 3 -2731 12 -2740 10 -10 10 -17 0 -32 -12 -20 -9
-20 142 -20 145 0 154 1 159 20 3 12 14 20 27 20 13 0 24 -8 27 -20 5 -20 14
-20 2699 -20 l2694 0 0 2760 0 2760 -2880 0 -2880 0 0 -2728z m2575 2575 c126
-58 215 -185 223 -319 l4 -66 127 -4 c119 -3 130 -5 192 -35 113 -56 196 -155
218 -262 19 -91 -19 -185 -90 -221 -37 -19 -62 -20 -839 -20 -883 0 -828 -4
-887 64 -90 102 -29 302 123 407 75 51 143 69 264 69 l107 0 10 74 c23 163
112 277 256 328 79 28 212 21 292 -15z m2723 -547 c19 -42 25 -73 26 -130 1
-89 -24 -149 -103 -247 -43 -53 -56 -62 -93 -68 -74 -12 -141 -43 -207 -94
-35 -28 -76 -53 -92 -56 -16 -4 -29 -10 -29 -14 0 -22 23 -71 33 -71 19 0 68
33 132 90 77 68 149 102 234 108 82 5 142 -10 184 -48 30 -27 31 -30 20 -61
-24 -64 -79 -144 -143 -209 -102 -104 -188 -134 -300 -105 -81 21 -105 12
-121 -47 -14 -53 -7 -180 16 -263 38 -144 98 -260 183 -355 l49 -54 51 69 c69
94 105 163 142 273 33 100 54 264 44 345 -6 44 -4 51 23 80 17 18 44 51 61 75
36 51 38 48 53 -86 43 -373 -112 -750 -396 -965 -250 -189 -578 -245 -879
-150 -190 60 -346 172 -469 338 -124 167 -185 333 -203 549 l-7 89 24 -6 c13
-4 45 -7 72 -7 l47 0 0 -39 c0 -134 80 -365 163 -474 22 -28 37 -58 37 -75 0
-42 34 -89 70 -97 17 -4 54 -27 81 -51 66 -58 133 -78 248 -72 94 5 146 25
191 73 14 15 42 36 62 46 21 10 42 28 48 38 27 51 -7 212 -57 272 -30 35 -78
59 -120 59 -27 1 -27 2 13 26 l42 25 -10 42 c-20 88 9 234 72 364 31 63 55 95
103 138 l62 56 -49 92 c-27 51 -58 102 -69 115 -59 65 -336 65 -418 0 -16 -13
-62 -68 -103 -122 l-75 -100 44 -48 c70 -78 89 -139 89 -288 0 -112 -3 -133
-27 -195 l-26 -70 22 -17 22 -18 -29 0 c-41 0 -111 -36 -131 -67 -9 -14 -23
-44 -30 -67 -16 -50 -18 -24 -6 79 10 82 -22 422 -44 478 -11 27 -50 31 -117
12 -166 -46 -326 54 -429 269 -34 72 -27 96 40 128 36 18 63 23 126 23 94 -1
158 -25 244 -96 66 -55 132 -99 146 -99 10 0 41 69 33 74 -1 1 -21 8 -43 15
-22 8 -57 29 -79 48 -48 44 -124 79 -198 94 -49 10 -64 19 -99 56 -22 24 -38
49 -35 56 2 7 10 37 17 68 l12 56 51 -39 c62 -47 213 -107 361 -144 61 -15
112 -29 114 -30 2 -2 -4 -15 -13 -28 -28 -44 -17 -48 31 -11 105 80 215 115
361 115 130 0 215 -28 325 -106 51 -37 56 -36 31 1 -19 28 -26 24 91 56 333
90 469 230 422 436 -9 37 -18 77 -22 88 -13 40 78 -71 103 -125z m-597 14
c123 -25 283 -97 359 -161 l32 -26 -68 -44 c-67 -43 -84 -50 -84 -35 0 16
-108 72 -200 104 -91 31 -102 33 -245 33 -136 0 -158 -3 -236 -28 -105 -33
-226 -93 -294 -145 l-50 -39 -70 20 c-38 11 -72 21 -74 23 -3 3 13 23 35 45
103 107 295 211 462 250 122 29 299 31 433 3z m-3801 2 c0 -2 -22 -21 -49 -40
-27 -20 -66 -61 -86 -91 -33 -51 -39 -55 -74 -55 -24 0 -48 -8 -65 -21 l-26
-20 0 -2137 0 -2136 22 -23 21 -23 1679 0 1678 0 0 -53 c0 -64 -18 -93 -68
-107 -25 -6 -591 -10 -1715 -10 -1835 0 -1717 -4 -1770 59 l-27 33 0 2261 c0
2184 1 2263 19 2290 24 37 57 59 100 68 39 7 361 12 361 5z m489 -51 c-15 -31
-31 -76 -35 -100 l-6 -45 -170 0 c-190 0 -208 -5 -255 -67 l-28 -36 0 -1963 0
-1962 24 -26 c13 -14 39 -30 58 -37 25 -8 393 -9 1359 -5 l1326 7 59 -65 c37
-40 80 -74 112 -90 l52 -25 -1588 -1 -1587 0 2 2093 3 2092 33 67 c21 44 51
84 88 118 101 91 125 97 390 99 l191 1 -28 -55z m2550 44 c17 -6 31 -14 31
-17 0 -4 -28 -22 -63 -39 -34 -18 -89 -55 -122 -83 l-60 -49 -87 -1 c-73 0
-90 3 -98 18 -6 9 -32 54 -59 100 l-49 82 237 0 c147 0 250 -4 270 -11z m-239
-217 c0 -4 -8 -12 -18 -19 -15 -9 -27 -7 -58 7 l-39 18 58 1 c31 1 57 -2 57
-7z m1605 -212 c3 -5 -1 -10 -9 -10 -9 0 -16 5 -16 10 0 6 4 10 9 10 6 0 13
-4 16 -10z m-3625 -540 l0 -190 -270 0 -270 0 0 190 0 190 270 0 270 0 0 -190z
m1480 -460 l0 -650 -340 0 -340 0 0 30 0 30 -344 0 -344 0 -6 23 c-3 12 -6 82
-6 155 l0 132 350 0 350 0 0 45 0 45 -349 0 -348 0 1 168 1 167 348 -4 347 -4
0 67 0 66 -344 0 c-304 0 -345 2 -350 16 -3 9 -6 94 -6 190 l0 174 690 0 690
0 0 -650z m-1613 140 l133 0 0 -165 0 -165 -270 0 -270 0 0 172 0 171 137 -6
c75 -4 196 -7 270 -7z m2733 -119 c52 -6 54 -7 31 -20 -30 -17 -204 -16 -235
2 -19 11 -16 13 29 18 69 8 111 8 175 0z m-240 -46 c23 -25 115 -65 149 -65
39 0 123 33 155 60 36 32 56 36 87 20 21 -12 26 -59 9 -91 -12 -22 -60 -49
-89 -49 -11 0 -22 8 -24 18 -4 13 -5 12 -6 -5 -1 -19 6 -22 55 -29 63 -7 97
-32 92 -67 -3 -22 -4 -22 -255 -24 -216 -2 -253 0 -264 13 -11 13 -10 21 2 42
11 21 25 28 57 33 23 3 47 10 54 17 8 8 6 10 -9 6 -25 -7 -79 20 -93 45 -23
45 -2 101 39 101 10 0 28 -11 41 -25z m-2360 -410 l0 -155 -270 0 -270 0 0
155 0 155 270 0 270 0 0 -155z m2635 141 c78 -12 79 -13 50 -25 -83 -35 -202
-36 -279 -3 l-40 17 55 11 c71 15 117 15 214 0z m-427 -238 c23 -16 58 -36 77
-44 l35 -14 0 -136 c0 -105 -3 -134 -12 -128 -7 4 -33 22 -58 39 -25 18 -60
40 -77 49 l-33 17 0 130 c0 101 3 129 13 123 6 -4 31 -20 55 -36z m-2208 -403
l0 -185 -270 0 -270 0 0 185 0 185 270 0 270 0 0 -185z m720 140 l0 -45 -262
-2 -263 -3 -3 -97 -3 -98 265 0 264 0 -3 -42 -3 -43 -300 -3 -299 -2 -7 31
c-3 17 -6 103 -6 190 l0 159 310 0 310 0 0 -45z m755 -39 l0 -80 -55 -21 c-90
-35 -163 -74 -199 -108 -19 -18 11 19 67 81 107 117 111 126 68 161 -13 11
-35 -7 -141 -111 -70 -68 -133 -127 -141 -131 -10 -6 -32 7 -71 42 -31 28 -60
51 -65 51 -14 0 -32 -81 -21 -98 16 -27 74 -62 101 -62 14 0 23 -2 20 -5 -4
-4 -210 -44 -230 -45 -5 0 -8 92 -8 205 l0 205 338 -2 337 -3 0 -79z m688 -47
c58 -41 170 -119 249 -175 79 -56 166 -113 194 -129 73 -38 118 -78 140 -122
10 -21 39 -116 64 -212 l45 -174 150 -43 c83 -24 161 -43 175 -44 48 -1 110
-76 110 -132 0 -18 -11 -56 -24 -85 -22 -46 -29 -53 -68 -63 -36 -10 -72 -24
-99 -38 -4 -1 -9 8 -13 21 -5 22 -28 30 -258 96 -192 55 -257 77 -269 94 l-17
21 -21 -35 c-38 -62 -45 -57 234 -140 267 -79 253 -73 266 -125 11 -43 12 -43
103 -79 50 -19 170 -63 265 -98 96 -35 176 -68 178 -73 4 -13 -85 -146 -207
-309 -122 -163 -293 -356 -444 -504 l-118 -114 -81 79 c-45 43 -128 123 -184
178 l-101 99 39 49 c21 28 39 53 39 57 0 3 -26 11 -57 18 -144 28 -255 96
-334 205 -26 35 -99 169 -162 298 -127 258 -166 317 -334 496 -190 204 -283
337 -283 409 0 39 32 90 72 116 26 16 46 19 89 17 97 -7 166 -58 449 -331 85
-82 173 -161 195 -176 76 -53 146 -64 213 -35 l37 16 -100 34 c-55 18 -101 34
-102 34 0 0 -21 16 -45 36 -25 21 -35 34 -23 31 11 -3 106 -30 210 -61 267
-77 739 -206 753 -206 7 0 12 7 12 15 0 8 9 42 21 76 12 33 19 62 18 64 -6 5
-363 111 -694 206 -621 179 -563 157 -655 237 -43 37 -79 70 -79 74 -1 3 23
14 52 24 28 9 82 29 118 44 l66 28 19 -36 c21 -38 114 -145 170 -194 31 -27
38 -30 60 -19 l26 12 -103 107 c-57 59 -113 124 -124 145 -24 45 -17 46 -222
-24 -140 -47 -143 -47 -175 -31 -18 9 -63 18 -101 20 -69 4 -112 -6 -154 -38
-20 -16 -27 -16 -75 -3 -29 8 -77 15 -107 16 l-53 2 -15 -48 c-8 -27 -12 -54
-10 -60 2 -6 39 -22 82 -36 72 -24 78 -28 79 -54 1 -15 -2 -27 -7 -27 -4 0
-49 14 -100 31 -60 21 -101 41 -117 59 -14 15 -55 48 -92 74 -65 45 -84 63
-76 71 2 3 62 14 133 25 122 20 154 20 253 3 l32 -5 0 44 c0 57 21 77 120 116
41 17 152 67 245 112 146 70 255 120 315 144 8 3 36 4 61 2 39 -2 63 -15 152
-77z m-2163 -594 l0 -185 -270 0 -270 0 0 185 0 185 270 0 270 0 0 -185z m715
135 l0 -45 -262 -3 -263 -2 0 -90 0 -90 263 -2 262 -3 0 -45 0 -45 -305 0
-305 0 -3 164 c-2 90 -1 174 2 188 l6 23 303 -2 302 -3 0 -45z m160 -52 c36
-28 65 -55 65 -59 0 -3 -7 -12 -15 -19 -20 -16 -19 -39 2 -62 21 -24 42 -23
69 3 21 20 23 20 73 3 l51 -16 -20 -27 c-10 -14 -30 -39 -43 -56 -23 -27 -25
-28 -42 -12 -28 29 -81 67 -92 67 -6 0 -16 -14 -22 -32 -9 -25 -8 -36 4 -55
19 -28 73 -63 98 -63 9 0 17 -8 17 -17 0 -10 9 -33 20 -50 l20 -33 -130 0
-130 0 0 240 c0 132 2 240 5 240 3 0 35 -23 70 -52z m405 -180 c12 -24 37 -64
56 -91 19 -26 34 -51 34 -56 0 -18 -52 -51 -106 -68 -51 -16 -56 -16 -89 0
-39 19 -59 55 -47 87 6 16 122 170 128 170 1 0 12 -19 24 -42z m242 -312 c8
-14 3 -33 -23 -83 -35 -68 -68 -99 -118 -109 -82 -17 -120 33 -97 127 27 108
50 159 81 178 l30 19 58 -57 c32 -31 63 -64 69 -75z m-1522 -11 l0 -45 -270 0
-270 0 0 45 0 45 270 0 270 0 0 -45z m1126 28 c58 -14 60 -16 56 -44 l-4 -29
-494 0 -494 0 0 -90 0 -90 304 0 305 0 3 48 3 47 182 3 183 2 15 -36 c8 -20
15 -37 15 -38 0 0 -67 0 -150 2 l-150 3 0 -179 0 -180 67 -4 c39 -2 68 -9 71
-16 6 -19 149 -16 168 3 11 11 38 15 95 15 l79 0 0 135 c0 110 3 135 14 135 9
0 17 -15 21 -40 4 -23 18 -54 31 -69 22 -27 24 -38 24 -135 l0 -106 -335 0
c-328 0 -335 0 -335 20 0 19 -8 20 -347 22 l-348 3 -2 319 -2 318 482 -2 c385
-2 494 -5 543 -17z m516 -140 l66 -72 -14 -57 c-14 -64 -51 -110 -95 -119 -64
-14 -83 12 -94 128 -6 64 -5 72 27 132 18 36 36 64 39 62 3 -1 35 -34 71 -74z
m-1642 -293 l0 -180 -270 0 -270 0 0 180 0 180 270 0 270 0 0 -180z m1136 41
l5 -34 67 66 c60 59 70 65 99 60 l33 -5 -32 -42 c-18 -22 -68 -83 -111 -134
l-79 -92 -79 71 c-43 39 -79 75 -79 79 0 5 37 36 83 69 l82 60 3 -32 c1 -18 5
-47 8 -66z"/>
<path d="M2340 5182 c-37 -19 -80 -88 -80 -128 0 -37 44 -106 80 -125 64 -35
137 -21 189 35 34 36 40 118 12 164 -43 68 -130 91 -201 54z"/>
<path d="M3866 3995 c-20 -21 -21 -20 10 -22 33 -1 55 -23 94 -93 23 -42 29
-48 24 -25 -10 52 -48 116 -80 136 -29 18 -33 18 -48 4z"/>
<path d="M4652 3994 c-12 -8 -31 -32 -41 -52 -19 -38 -36 -102 -28 -102 3 0
19 24 36 54 36 64 63 86 109 86 30 0 33 2 22 15 -16 20 -70 19 -98 -1z"/>
<path d="M4660 3920 c-20 -13 -3 -40 25 -40 18 0 25 5 25 19 0 20 -30 33 -50
21z"/>
<path d="M3887 3913 c-12 -11 -7 -33 8 -39 20 -8 45 13 38 32 -5 14 -34 19
-46 7z"/>
<path d="M4751 3899 c-1 -14 -15 -47 -32 -72 -36 -55 -35 -77 3 -47 32 25 50
79 38 117 l-8 28 -1 -26z"/>
<path d="M3860 3837 c0 -5 8 -22 17 -40 14 -26 18 -29 21 -13 2 10 -5 28 -17
39 -12 12 -21 18 -21 14z"/>
<path d="M1222 3858 l3 -103 183 -3 182 -2 0 105 0 105 -185 0 -186 0 3 -102z"/>
<path d="M2895 3870 l-130 -130 -63 57 c-50 44 -66 53 -73 42 -13 -20 -22 -76
-16 -93 12 -30 89 -59 167 -64 l75 -4 45 59 c25 32 73 90 108 130 34 39 62 75
62 80 -1 8 -35 53 -42 53 -2 0 -62 -58 -133 -130z"/>
<path d="M2626 3954 c-19 -18 -20 -28 -6 -55 20 -36 90 -11 90 32 0 37 -55 52
-84 23z"/>
<path d="M1872 3858 l3 -103 303 -3 302 -2 0 105 0 105 -305 0 -306 0 3 -102z"/>
<path d="M2895 3420 c-71 -71 -132 -130 -135 -130 -3 0 -33 25 -68 56 -35 31
-66 53 -70 50 -3 -4 -6 -30 -7 -58 0 -50 1 -53 45 -82 38 -26 56 -31 120 -34
73 -4 75 -3 92 25 9 15 58 75 107 133 50 58 91 110 91 115 0 13 -29 55 -38 55
-4 0 -66 -58 -137 -130z"/>
<path d="M2632 3504 c-25 -17 -29 -56 -7 -74 21 -18 64 -4 77 25 9 21 8 28 -7
45 -22 24 -34 25 -63 4z"/>
<path d="M1870 3380 l0 -80 305 0 305 0 0 80 0 80 -305 0 -305 0 0 -80z"/>
<path d="M2896 2985 l-128 -136 -47 37 c-25 21 -53 46 -62 57 -16 19 -16 19
-28 -13 -32 -92 8 -131 143 -138 l81 -4 23 31 c13 17 61 77 107 132 47 55 85
106 85 112 -1 11 -34 57 -42 57 -1 0 -61 -61 -132 -135z"/>
<path d="M2638 3069 c-22 -12 -24 -62 -3 -79 22 -19 63 2 71 36 11 41 -29 66
-68 43z"/>
<path d="M1870 2965 l0 -65 305 0 305 0 0 65 0 65 -305 0 -305 0 0 -65z"/>
<path d="M1220 3380 l0 -80 185 0 185 0 0 80 0 80 -185 0 -185 0 0 -80z"/>
<path d="M1220 2965 l0 -75 185 0 185 0 0 75 0 75 -185 0 -185 0 0 -75z"/>
<path d="M1220 2465 l0 -85 185 0 185 0 0 85 0 85 -185 0 -185 0 0 -85z"/>
<path d="M2616 2554 c-9 -8 -16 -21 -16 -27 0 -19 30 -57 44 -57 17 0 56 43
56 61 0 37 -55 52 -84 23z"/>
<path d="M2687 2132 c-16 -7 -14 -10 13 -31 36 -26 35 -26 44 12 6 23 3 27
-16 26 -13 0 -31 -4 -41 -7z"/>
<path d="M4849 1533 c-23 -59 -40 -124 -34 -133 3 -6 14 -10 25 -10 14 0 23
16 39 69 25 84 25 78 1 91 -17 9 -22 7 -31 -17z"/>
<path d="M1220 1925 l0 -85 185 0 185 0 0 85 0 85 -185 0 -185 0 0 -85z"/>
<path d="M1870 1095 l0 -95 305 0 305 0 0 95 0 95 -305 0 -305 0 0 -95z"/>
<path d="M1220 1105 l0 -85 185 0 185 0 0 85 0 85 -185 0 -185 0 0 -85z"/>
</g>
</svg>
